<?xml version="1.0" standalone="no"?>
<svg xmlns="http://www.w3.org/2000/svg" viewBox="0 0 129.165 29" width="129.165" height="29"><g fill="#256399" color="#256399" transform="translate(0, 0) scale(0.29)"><svg width="100.0" height="100.0" x="0.0" y="0.0" viewBox="0 0 100 100"><title></title><path d="M50,98.85A48.85,48.85,0,1,0,1.15,50,48.91,48.91,0,0,0,50,98.85ZM63.95,85.53a41.56,41.56,0,0,0,5.88-11,71,71,0,0,1,7.63,2A38.3,38.3,0,0,1,63.95,85.53ZM82.07,70.67a72.69,72.69,0,0,0-10.24-2.92,75.2,75.2,0,0,0,1.92-14.27H88A37.92,37.92,0,0,1,82.07,70.67ZM88,46.52H73.75a75.17,75.17,0,0,0-1.92-14.27,72.62,72.62,0,0,0,10.24-2.92A37.91,37.91,0,0,1,88,46.52Zm-10.56-23a71,71,0,0,1-7.63,2,41.56,41.56,0,0,0-5.88-11A38.29,38.29,0,0,1,77.46,23.51Zm-24-9.17c3.45,1.79,6.8,6.11,9.29,12.31-2.94.36-6,.59-9.29.68Zm0,20a108.22,108.22,0,0,0,11.46-.89,67.29,67.29,0,0,1,1.84,13.1H53.48Zm0,19.18h13.3a67.28,67.28,0,0,1-1.84,13.1,108.22,108.22,0,0,0-11.46-.89Zm0,19.18c3.24.09,6.35.32,9.29.68-2.49,6.2-5.84,10.52-9.29,12.31ZM22.77,76.73a68.64,68.64,0,0,1,7.48-2.06,41.38,41.38,0,0,0,5.81,10.86A38.29,38.29,0,0,1,22.77,76.73Zm23.74,8.93c-3.43-1.78-6.76-6.06-9.24-12.2,2.92-.38,6-.65,9.24-.76Zm0-19.93a107,107,0,0,0-11.42,1,67.17,67.17,0,0,1-1.87-13.22h13.3Zm0-19.21H33.22A67.17,67.17,0,0,1,35.09,33.3a106.9,106.9,0,0,0,11.42,1Zm0-32.17v13c-3.23-.12-6.32-.38-9.24-.76C39.76,20.4,43.09,16.12,46.52,14.34Zm-10.46.13a41.38,41.38,0,0,0-5.81,10.86,68.62,68.62,0,0,1-7.48-2.06A38.29,38.29,0,0,1,36.06,14.47ZM18.12,29a70.27,70.27,0,0,0,10.1,3,75,75,0,0,0-2,14.46H12A37.92,37.92,0,0,1,18.12,29Zm8.13,24.45a75,75,0,0,0,2,14.46,70.26,70.26,0,0,0-10.1,3A37.92,37.92,0,0,1,12,53.48Z"></path></svg></g><line x1="41" y1="1" x2="41" y2="28" stroke="#000000" stroke-linecap="round"></line><path fill="#000000" fill-rule="nonzero" d="M7.08 16.72L0 16.72L0 16.20L1.80 16.08L1.80 0.64L0 0.53L0 0L11.07 0L11.19 4.77L10.54 4.77Q10.45 3.79 10.25 3.09Q10.05 2.39 9.65 1.81Q9.25 1.23 8.54 0.94Q7.84 0.64 6.83 0.64L6.83 0.64Q5.48 0.64 4.80 0.76L4.80 0.76L4.80 7.98Q5.10 7.99 5.14 7.99L5.14 7.99Q5.98 7.99 6.46 7.90Q6.94 7.82 7.32 7.53Q7.71 7.24 7.86 6.68Q8.02 6.12 8.02 5.18L8.02 5.18L8.66 5.18L8.66 11.47L8.02 11.47Q8.02 9.87 7.49 9.25Q6.96 8.63 5.73 8.63L5.73 8.63L4.80 8.64L4.80 16.08L7.08 16.20L7.08 16.72ZM11.89 10.91L11.89 10.91Q11.89 9.14 12.58 7.70Q13.27 6.26 14.50 5.43Q15.74 4.61 17.30 4.61L17.30 4.61Q18.59 4.61 19.62 5.14Q20.66 5.67 21.29 6.56Q21.91 7.45 22.25 8.55Q22.58 9.64 22.58 10.84L22.58 10.84Q22.58 12.56 21.93 13.98Q21.27 15.40 20.04 16.24Q18.82 17.07 17.27 17.07L17.27 17.07Q15.90 17.07 14.85 16.59Q13.80 16.10 13.17 15.24Q12.53 14.38 12.21 13.29Q11.89 12.20 11.89 10.91ZM14.89 10.77L14.89 10.77Q14.89 12.07 15.02 13.10Q15.15 14.12 15.42 14.91Q15.69 15.70 16.15 16.13Q16.61 16.55 17.23 16.55L17.23 16.55Q19.58 16.55 19.58 10.91L19.58 10.91Q19.58 9.49 19.47 8.47Q19.36 7.45 19.10 6.67Q18.83 5.89 18.36 5.51Q17.89 5.13 17.23 5.13L17.23 5.13Q16.61 5.13 16.15 5.55Q15.69 5.98 15.42 6.75Q15.15 7.52 15.02 8.52Q14.89 9.52 14.89 10.77ZM25.62 5.89L24.18 5.89L24.18 5.41L26.63 5.16L28.28 4.72L28.44 5.06L28.44 7.08L28.49 7.08Q28.72 6.61 29.06 6.16Q29.40 5.72 29.81 5.37Q30.21 5.03 30.67 4.82Q31.13 4.61 31.59 4.61L31.59 4.61Q32.51 4.61 33.01 5.09Q33.50 5.58 33.50 6.39L33.50 6.39Q33.50 6.73 33.40 7.01Q33.29 7.30 33.10 7.51Q32.91 7.72 32.63 7.85Q32.36 7.97 32.03 7.97L32.03 7.97Q31.68 7.97 31.39 7.85Q31.11 7.73 30.92 7.54Q30.73 7.34 30.62 7.07Q30.52 6.81 30.52 6.50L30.52 6.50Q30.52 5.88 30.77 5.59L30.77 5.59L30.77 5.52Q30.35 5.61 29.95 5.96Q29.54 6.32 29.21 6.92Q28.89 7.52 28.69 8.37Q28.49 9.22 28.49 10.29L28.49 10.29L28.49 16.13L29.70 16.24L29.70 16.72L24.41 16.72L24.41 16.24L25.62 16.13L25.62 5.89ZM35.79 5.89L34.35 5.89L34.35 5.41L36.80 5.16L38.45 4.72L38.61 5.06L38.61 6.64L38.66 6.64Q40.05 4.61 42.02 4.61L42.02 4.61Q42.43 4.61 42.82 4.69Q43.21 4.78 43.63 5.00Q44.06 5.21 44.41 5.68Q44.77 6.14 44.96 6.80L44.96 6.80L44.99 6.80Q46.56 4.61 48.64 4.61L48.64 4.61Q49.05 4.61 49.44 4.68Q49.83 4.76 50.28 5.02Q50.73 5.27 51.06 5.68Q51.39 6.09 51.61 6.84Q51.83 7.58 51.83 8.57L51.83 8.57L51.83 16.13L53.04 16.24L53.04 16.72L47.75 16.72L47.75 16.24L48.95 16.13L48.95 8.16Q48.95 7.46 48.83 6.97Q48.70 6.47 48.54 6.22Q48.39 5.98 48.15 5.84Q47.92 5.71 47.78 5.68Q47.64 5.66 47.46 5.66L47.46 5.66Q46.68 5.66 45.93 6.53Q45.19 7.39 45.19 8.91L45.19 8.91L45.19 16.13L46.39 16.24L46.39 16.72L41.11 16.72L41.11 16.24L42.30 16.13L42.30 8.16Q42.30 7.46 42.19 6.97Q42.07 6.47 41.91 6.22Q41.75 5.98 41.53 5.84Q41.30 5.71 41.16 5.68Q41.02 5.66 40.84 5.66L40.84 5.66Q40.09 5.66 39.38 6.67Q38.66 7.68 38.66 9.14L38.66 9.14L38.66 16.13L39.87 16.24L39.87 16.72L34.58 16.72L34.58 16.24L35.79 16.13L35.79 5.89ZM54.55 10.84L54.55 10.84Q54.55 9.93 54.73 9.05Q54.90 8.18 55.30 7.37Q55.70 6.56 56.27 5.95Q56.85 5.34 57.70 4.97Q58.55 4.61 59.58 4.61L59.58 4.61Q60.55 4.61 61.32 4.88Q62.10 5.16 62.61 5.65Q63.13 6.14 63.47 6.85Q63.81 7.56 63.96 8.38Q64.10 9.21 64.10 10.20L64.10 10.20L63.79 10.49L57.55 10.49L57.55 11.20Q57.55 16.31 60.46 16.31L60.46 16.31Q62.52 16.31 63.75 14.25L63.75 14.25L64.21 14.53Q62.70 17.07 59.91 17.07L59.91 17.07Q57.21 17.07 55.88 15.41Q54.55 13.75 54.55 10.84ZM57.55 9.96L57.55 9.96L61.34 9.81Q61.37 9.21 61.37 8.66L61.37 8.66Q61.37 6.96 60.97 6.05Q60.56 5.13 59.63 5.13L59.63 5.13Q59.06 5.13 58.66 5.50Q58.25 5.87 58.03 6.56Q57.81 7.25 57.70 8.07Q57.59 8.88 57.55 9.96ZM65.79 5.89L65.77 5.41L68.21 5.16L69.87 4.72L70.08 5.06L70.03 6.64L70.08 6.64Q71.47 4.61 73.69 4.61L73.69 4.61Q74.11 4.61 74.50 4.68Q74.88 4.75 75.35 4.99Q75.82 5.24 76.16 5.64Q76.50 6.04 76.73 6.77Q76.97 7.51 76.97 8.50L76.97 8.50L76.97 16.13L78.16 16.24L78.16 16.72L72.89 16.72L72.89 16.24L74.09 16.13L74.09 8.16Q74.09 5.66 72.48 5.66L72.48 5.66Q71.43 5.66 70.75 6.62Q70.08 7.58 70.08 9.14L70.08 9.14L70.08 16.13L71.29 16.24L71.29 16.72L66 16.72L66 16.24L67.21 16.13L67.21 5.87L65.79 5.89Z" transform="translate(51, 6.139)"></path></svg>